<?xml version="1.0" standalone="no"?>
<!DOCTYPE svg PUBLIC "-//W3C//DTD SVG 20010904//EN"
 "http://www.w3.org/TR/2001/REC-SVG-20010904/DTD/svg10.dtd">
<svg version="1.0" xmlns="http://www.w3.org/2000/svg"
 width="1399.000000pt" height="1399.000000pt" viewBox="0 0 1399.000000 1399.000000"
 preserveAspectRatio="xMidYMid meet">

<g transform="translate(0.000000,1399.000000) scale(0.100000,-0.100000)"
fill="#000000" stroke="none">
<path d="M10 7000 l0 -6990 500 0 500 0 -2 6988 -3 6987 -497 3 -498 2 0
-6990z"/>
<path d="M1690 7000 l0 -6990 500 0 500 0 -2 6988 -3 6987 -497 3 -498 2 0
-6990z"/>
<path d="M11310 7000 l0 -6990 500 0 500 0 -2 6988 -3 6987 -497 3 -498 2 0
-6990z"/>
<path d="M12990 7000 l0 -6990 500 0 500 0 -2 6988 -3 6987 -497 3 -498 2 0
-6990z"/>
<path d="M4880 6995 l0 -2815 2120 0 2120 0 0 2815 0 2815 -2120 0 -2120 0 0
-2815z"/>
</g>
</svg>
