<?xml version="1.0" standalone="no"?>
<!DOCTYPE svg PUBLIC "-//W3C//DTD SVG 20010904//EN"
 "http://www.w3.org/TR/2001/REC-SVG-20010904/DTD/svg10.dtd">
<svg version="1.0" xmlns="http://www.w3.org/2000/svg"
 width="1024.000000pt" height="1024.000000pt" viewBox="0 0 1024.000000 1024.000000"
 preserveAspectRatio="xMidYMid meet">

<g transform="translate(0.000000,1024.000000) scale(0.100000,-0.100000)"
fill="#000000" stroke="none">
<path d="M7 10233 c-4 -3 -7 -2305 -7 -5115 l0 -5108 5120 0 5120 0 -2 5113
-3 5112 -5111 3 c-2811 1 -5114 -1 -5117 -5z m2521 -5110 l2 -3023 -220 0
-220 0 0 3018 c0 1660 3 3022 7 3026 4 3 102 5 217 4 l211 -3 3 -3022z m722 2
l0 -3025 -215 0 -215 0 0 3025 0 3025 215 0 215 0 0 -3025z m4170 0 l0 -3025
-215 0 -215 0 0 3025 0 3025 215 0 215 0 0 -3025z m728 -2 l2 -3023 -220 0
-220 0 0 3018 c0 1660 3 3022 7 3026 4 3 102 5 217 4 l211 -3 3 -3022z m-2108
-3 l0 -1220 -920 0 -920 0 0 1220 0 1220 920 0 920 0 0 -1220z"/>
</g>
</svg>
